<svg id="visual" viewBox="0 0 900 600" width="900" height="600" xmlns="http://www.w3.org/2000/svg" xmlns:xlink="http://www.w3.org/1999/xlink" version="1.1"><g stroke-width="1" stroke-linejoin="bevel"><path d="M485 282L466 231L403 270Z" fill="#3296c4" stroke="#3296c4"></path><path d="M466 231L388 188L403 270Z" fill="#2a7ea9" stroke="#2a7ea9"></path><path d="M295 280L395 401L403 270Z" fill="#062944" stroke="#062944"></path><path d="M403 270L395 401L485 282Z" fill="#0b3350" stroke="#0b3350"></path><path d="M388 188L311 204L403 270Z" fill="#1e5c82" stroke="#1e5c82"></path><path d="M311 204L295 280L403 270Z" fill="#3296c4" stroke="#3296c4"></path><path d="M395 401L531 417L485 282Z" fill="#1e5c82" stroke="#1e5c82"></path><path d="M533 106L380 108L388 188Z" fill="#26739c" stroke="#26739c"></path><path d="M388 188L380 108L311 204Z" fill="#22678f" stroke="#22678f"></path><path d="M485 282L617 208L466 231Z" fill="#2a7ea9" stroke="#2a7ea9"></path><path d="M466 231L533 106L388 188Z" fill="#154769" stroke="#154769"></path><path d="M621 320L617 208L485 282Z" fill="#154769" stroke="#154769"></path><path d="M531 417L621 320L485 282Z" fill="#26739c" stroke="#26739c"></path><path d="M617 208L533 106L466 231Z" fill="#0b3350" stroke="#0b3350"></path><path d="M395 401L493 460L531 417Z" fill="#154769" stroke="#154769"></path><path d="M531 417L624 400L621 320Z" fill="#26739c" stroke="#26739c"></path><path d="M295 280L315 432L395 401Z" fill="#103c5c" stroke="#103c5c"></path><path d="M395 401L374 494L493 460Z" fill="#1e5c82" stroke="#1e5c82"></path><path d="M617 208L590 100L533 106Z" fill="#22678f" stroke="#22678f"></path><path d="M334 0L294 96L380 108Z" fill="#1e5c82" stroke="#1e5c82"></path><path d="M567 461L624 400L531 417Z" fill="#2a7ea9" stroke="#2a7ea9"></path><path d="M621 320L677 316L617 208Z" fill="#103c5c" stroke="#103c5c"></path><path d="M493 460L567 461L531 417Z" fill="#0b3350" stroke="#0b3350"></path><path d="M410 0L380 108L533 106Z" fill="#062944" stroke="#062944"></path><path d="M380 108L294 96L311 204Z" fill="#2a7ea9" stroke="#2a7ea9"></path><path d="M176 208L206 323L295 280Z" fill="#0b3350" stroke="#0b3350"></path><path d="M679 362L677 316L621 320Z" fill="#26739c" stroke="#26739c"></path><path d="M617 208L705 192L590 100Z" fill="#2e8ab7" stroke="#2e8ab7"></path><path d="M315 432L374 494L395 401Z" fill="#22678f" stroke="#22678f"></path><path d="M493 460L497 600L567 461Z" fill="#0b3350" stroke="#0b3350"></path><path d="M176 208L295 280L311 204Z" fill="#3296c4" stroke="#3296c4"></path><path d="M295 280L206 323L315 432Z" fill="#103c5c" stroke="#103c5c"></path><path d="M315 432L305 489L374 494Z" fill="#26739c" stroke="#26739c"></path><path d="M691 487L679 362L624 400Z" fill="#062944" stroke="#062944"></path><path d="M624 400L679 362L621 320Z" fill="#1a5175" stroke="#1a5175"></path><path d="M232 487L305 489L315 432Z" fill="#154769" stroke="#154769"></path><path d="M518 0L410 0L533 106Z" fill="#0b3350" stroke="#0b3350"></path><path d="M677 316L705 192L617 208Z" fill="#22678f" stroke="#22678f"></path><path d="M760 216L705 192L677 316Z" fill="#2e8ab7" stroke="#2e8ab7"></path><path d="M218 88L176 208L311 204Z" fill="#26739c" stroke="#26739c"></path><path d="M616 0L518 0L590 100Z" fill="#22678f" stroke="#22678f"></path><path d="M590 100L518 0L533 106Z" fill="#22678f" stroke="#22678f"></path><path d="M104 331L201 400L206 323Z" fill="#062944" stroke="#062944"></path><path d="M206 323L201 400L315 432Z" fill="#2a7ea9" stroke="#2a7ea9"></path><path d="M294 96L218 88L311 204Z" fill="#1e5c82" stroke="#1e5c82"></path><path d="M215 0L218 88L294 96Z" fill="#3296c4" stroke="#3296c4"></path><path d="M410 0L334 0L380 108Z" fill="#22678f" stroke="#22678f"></path><path d="M201 400L232 487L315 432Z" fill="#1a5175" stroke="#1a5175"></path><path d="M377 600L497 600L374 494Z" fill="#2a7ea9" stroke="#2a7ea9"></path><path d="M739 63L616 0L590 100Z" fill="#0b3350" stroke="#0b3350"></path><path d="M765 313L760 216L677 316Z" fill="#2e8ab7" stroke="#2e8ab7"></path><path d="M705 192L739 63L590 100Z" fill="#062944" stroke="#062944"></path><path d="M679 362L765 313L677 316Z" fill="#2a7ea9" stroke="#2a7ea9"></path><path d="M769 414L765 313L679 362Z" fill="#1a5175" stroke="#1a5175"></path><path d="M218 88L138 160L176 208Z" fill="#22678f" stroke="#22678f"></path><path d="M176 208L104 331L206 323Z" fill="#062944" stroke="#062944"></path><path d="M623 600L691 487L567 461Z" fill="#26739c" stroke="#26739c"></path><path d="M567 461L691 487L624 400Z" fill="#2e8ab7" stroke="#2e8ab7"></path><path d="M377 600L374 494L305 489Z" fill="#22678f" stroke="#22678f"></path><path d="M374 494L497 600L493 460Z" fill="#26739c" stroke="#26739c"></path><path d="M272 600L377 600L305 489Z" fill="#0b3350" stroke="#0b3350"></path><path d="M138 160L104 331L176 208Z" fill="#3296c4" stroke="#3296c4"></path><path d="M201 400L62 464L232 487Z" fill="#22678f" stroke="#22678f"></path><path d="M334 0L215 0L294 96Z" fill="#1e5c82" stroke="#1e5c82"></path><path d="M218 88L101 123L138 160Z" fill="#1e5c82" stroke="#1e5c82"></path><path d="M691 487L769 414L679 362Z" fill="#0b3350" stroke="#0b3350"></path><path d="M760 216L739 63L705 192Z" fill="#0b3350" stroke="#0b3350"></path><path d="M0 298L91 363L104 331Z" fill="#22678f" stroke="#22678f"></path><path d="M104 331L91 363L201 400Z" fill="#26739c" stroke="#26739c"></path><path d="M138 0L101 123L218 88Z" fill="#1a5175" stroke="#1a5175"></path><path d="M0 204L0 298L104 331Z" fill="#3296c4" stroke="#3296c4"></path><path d="M168 600L272 600L232 487Z" fill="#2a7ea9" stroke="#2a7ea9"></path><path d="M232 487L272 600L305 489Z" fill="#103c5c" stroke="#103c5c"></path><path d="M497 600L623 600L567 461Z" fill="#3296c4" stroke="#3296c4"></path><path d="M691 487L809 514L769 414Z" fill="#2a7ea9" stroke="#2a7ea9"></path><path d="M739 63L724 0L616 0Z" fill="#3296c4" stroke="#3296c4"></path><path d="M760 216L798 68L739 63Z" fill="#1a5175" stroke="#1a5175"></path><path d="M739 63L762 0L724 0Z" fill="#2e8ab7" stroke="#2e8ab7"></path><path d="M900 198L798 68L760 216Z" fill="#3296c4" stroke="#3296c4"></path><path d="M900 318L760 216L765 313Z" fill="#154769" stroke="#154769"></path><path d="M215 0L138 0L218 88Z" fill="#103c5c" stroke="#103c5c"></path><path d="M623 600L690 600L691 487Z" fill="#1a5175" stroke="#1a5175"></path><path d="M798 68L762 0L739 63Z" fill="#3296c4" stroke="#3296c4"></path><path d="M0 372L62 464L91 363Z" fill="#103c5c" stroke="#103c5c"></path><path d="M91 363L62 464L201 400Z" fill="#0b3350" stroke="#0b3350"></path><path d="M129 600L168 600L232 487Z" fill="#2a7ea9" stroke="#2a7ea9"></path><path d="M690 600L809 514L691 487Z" fill="#154769" stroke="#154769"></path><path d="M769 414L900 318L765 313Z" fill="#26739c" stroke="#26739c"></path><path d="M0 204L104 331L138 160Z" fill="#2a7ea9" stroke="#2a7ea9"></path><path d="M0 204L138 160L101 123Z" fill="#062944" stroke="#062944"></path><path d="M0 82L0 204L101 123Z" fill="#0b3350" stroke="#0b3350"></path><path d="M0 298L0 372L91 363Z" fill="#2e8ab7" stroke="#2e8ab7"></path><path d="M900 409L900 318L769 414Z" fill="#103c5c" stroke="#103c5c"></path><path d="M62 464L129 600L232 487Z" fill="#154769" stroke="#154769"></path><path d="M0 521L129 600L62 464Z" fill="#0b3350" stroke="#0b3350"></path><path d="M900 318L900 198L760 216Z" fill="#062944" stroke="#062944"></path><path d="M798 68L900 0L762 0Z" fill="#2e8ab7" stroke="#2e8ab7"></path><path d="M900 478L900 409L769 414Z" fill="#062944" stroke="#062944"></path><path d="M138 0L0 82L101 123Z" fill="#1a5175" stroke="#1a5175"></path><path d="M900 198L900 74L798 68Z" fill="#062944" stroke="#062944"></path><path d="M900 600L900 478L809 514Z" fill="#062944" stroke="#062944"></path><path d="M809 514L900 478L769 414Z" fill="#1e5c82" stroke="#1e5c82"></path><path d="M690 600L828 600L809 514Z" fill="#2e8ab7" stroke="#2e8ab7"></path><path d="M0 372L0 521L62 464Z" fill="#0b3350" stroke="#0b3350"></path><path d="M138 0L0 0L0 82Z" fill="#103c5c" stroke="#103c5c"></path><path d="M900 74L900 0L798 68Z" fill="#1a5175" stroke="#1a5175"></path><path d="M0 521L0 600L129 600Z" fill="#2e8ab7" stroke="#2e8ab7"></path><path d="M828 600L900 600L809 514Z" fill="#1a5175" stroke="#1a5175"></path></g></svg>